/* XPM */
static char *def7e0c297ad4e6ef55db38f10c5c71cnySDdmlSpopDAGYj[] = {
/* columns rows colors chars-per-pixel */
"14 14 9 1 ",
"  c black",
". c None",
"X c #861B15",
"o c #FF9D0E",
"O c #FFEB47",
"+ c #FF4100",
"@ c #0E0E0E",
"# c #EE6A0E",
"$ c white",
/* pixels */
"              ",
"              ",
"     XX       ",
"    XooX      ",
"   XoOOoX XX  ",
"  X++O@OXXOX  ",
"   XOOOOOOOX  ",
"  XOOO#OOO#X  ",
"  XoOOO###oX  ",
"   XooooooX   ",
"    XXXXXX    ",
"   .X#X#X..   ",
"    ......    ",
"              "
};
