/* XPM */
static char *f7c2bf375ea04673946ddb93c2e118210MRkhtBsLdKgELVy[] = {
/* columns rows colors chars-per-pixel */
"20 26 10 1 ",
"  c None",
". c #32131E",
"X c #AE4924",
"o c #4A2123",
"O c #1C0A18",
"+ c #8A3625",
"@ c #1D1D1D",
"# c #B2B2B2",
"$ c #7B7B7B",
"% c white",
/* pixels */
"                    ",
"                    ",
"   ..............   ",
"  .XXXXXXXXXXXXXX.  ",
"  .Xo..........oXO  ",
"  .X..oooooooo..XO  ",
"  .+.o++++++++o.+O  ",
"  .+.++.oooo.++.+O  ",
"  .+.++oXXXXo++.+O  ",
"  .+.++o++++o++.+O  ",
"  .+.++o++++o++.+O  ",
"  .+.++o++++o++.+O  ",
"  .+.++o++++o+@.+O  ",
"  .+.++o++++o@#.+O  ",
"  .+.++.oooo.@$.+O  ",
"  .+.+++++++++@.+O  ",
"  .+.++.oooo.++.+O  ",
"  .+.++oXXXXo++.+O  ",
"  .+.++o++++o++.+O  ",
"  .+.++o++++o++.+O  ",
"  .+.++.oooo.++.+O  ",
"  .+O++++++++++O+O  ",
"  .+O++++++++++O+O  ",
"  .+O..........O+O  ",
"  ..            OO  ",
"                    "
};
