/* XPM */
static char *c1a64a53f83b48cbfe20cf37bbe998d39o23yB6hnES74BHc[] = {
/* columns rows colors chars-per-pixel */
"17 24 12 1 ",
"  c None",
". c #0E0E0E",
"X c #2F2F2F",
"o c #1D1D1D",
"O c #7B7B7B",
"+ c #4E4E4E",
"@ c #1C0A18",
"# c #EF7B55",
"$ c #1A3473",
"% c #FFC68B",
"& c #1F1F38",
"* c white",
/* pixels */
"                 ",
"                 ",
"         ...     ",
"      ...X.      ",
"     .oXXXX...   ",
"    .O+XXX+X.    ",
"   .o+O+X+O+o.   ",
"   .oX+OOO+oXX.  ",
"   .ooXXXXooXo.  ",
"   .ooooooooX.   ",
"    .oooooo.o.   ",
"     .ooooo@.    ",
"      @###@      ",
"    @@$$$$$@@    ",
"   @%%$$$$$%%@   ",
"   @%#$$$$$#%@   ",
"    @@$$$$$@@    ",
"     @$$$$$@     ",
"    @@$$&$$@@    ",
"    @%%#@#%%@    ",
"     @@@ @@@     ",
"                 ",
"                 ",
"                 "
};
