/* XPM */
static char *_5fd7939607f458fe2896cb987e0b00dkUJM7fBvOmDGzGiX[] = {
/* columns rows colors chars-per-pixel */
"32 33 124 2 ",
"   c None",
".  c #4E2F1B",
"X  c #502F1B",
"o  c #4F311D",
"O  c #50311D",
"+  c #4E3420",
"@  c #533623",
"#  c #543825",
"$  c #593A25",
"%  c #533D2C",
"&  c #5B3E2A",
"*  c #5E412D",
"=  c #534A3E",
"-  c #60442F",
";  c #614531",
":  c #634936",
">  c #654D39",
",  c #68513E",
"<  c #5E5446",
"1  c #605647",
"2  c #605748",
"3  c #635A4C",
"4  c #665D52",
"5  c #73654E",
"6  c #6B6354",
"7  c #6A6258",
"8  c #6F6858",
"9  c #736650",
"0  c #726A5A",
"q  c #786F5F",
"w  c #77715E",
"e  c #78725F",
"r  c #777060",
"t  c #7A7461",
"y  c #7A7562",
"u  c #797461",
"i  c #7A7364",
"p  c #7C7565",
"a  c #7C7664",
"s  c #7D7666",
"d  c #7C7766",
"f  c #7D7766",
"g  c #7D7767",
"h  c #787360",
"j  c #7D7866",
"k  c #7D7867",
"l  c #7E7867",
"z  c #7F7867",
"x  c #7E7967",
"c  c #7F7868",
"v  c #817C6C",
"b  c #827C6C",
"n  c #827D6C",
"m  c #827D6D",
"M  c #837D6D",
"N  c #837E6D",
"B  c #837E6E",
"V  c #847E6E",
"C  c #847F6E",
"Z  c #857F6E",
"A  c #85806F",
"S  c #86806F",
"D  c #878171",
"F  c #878272",
"G  c #888272",
"H  c #888372",
"J  c #888273",
"K  c #888373",
"L  c #898373",
"P  c #898473",
"I  c #888374",
"U  c #898374",
"Y  c #898474",
"T  c #898475",
"R  c #8A8474",
"E  c #8A8574",
"W  c #8A8475",
"Q  c #8A8575",
"!  c #8B8575",
"~  c #8A8576",
"^  c #8B8676",
"/  c #8B8678",
"(  c #8B8779",
")  c #8C8778",
"_  c #8D8778",
"`  c #8C8679",
"'  c #8C8779",
"]  c #8D8779",
"[  c #8C877A",
"{  c #8C877B",
"}  c #8D8879",
"|  c #8E8879",
" . c #8D887A",
".. c #8E887A",
"X. c #8E897B",
"o. c #8E897C",
"O. c #8F8B7C",
"+. c #8E8A7D",
"@. c #8F8A7D",
"#. c #8F8B7D",
"$. c #8E8A7E",
"%. c #8F8B7E",
"&. c #8F8B7F",
"*. c #908B7C",
"=. c #908A7D",
"-. c #908B7D",
";. c #908B7E",
":. c #908B7F",
">. c #908C7E",
",. c #918C7E",
"<. c #908C7F",
"1. c #918C7F",
"2. c #908C80",
"3. c #918D80",
"4. c #928D80",
"5. c #918F87",
"6. c #929086",
"7. c #939087",
"8. c #939187",
"9. c #95928A",
"0. c #96938B",
"q. c #96948B",
"w. c #97948B",
"e. c #97948C",
/* pixels */
"                                                                ",
"                                                                ",
"                                                                ",
"                            > > > > : :                         ",
"                      > , , F F F F S < : ;                     ",
"                    > r q q F F F F F F 2 2 *                   ",
"                  : r r r O.L L L F F L 3 2 -                   ",
"                ; s s i O./ L L L L L L I 2 2 &                 ",
"              ; s z s <.) P P L L I L I E 3 3 = &               ",
"            * s c c <.) ) E P L P E I I E E < = = &             ",
"            ; 9 9 <.) ) E E E E P E E E E E O.= = &             ",
"            ; 5 9 2.} } } E E E E P E E E E ) O.= = &           ",
"          * 5 5 <.) } } } } } } E E E E E } ) O.= = %           ",
"          & 5 <.) } } } } } } } } E P } } } ) O.= = = %         ",
"        & 5 :.) ) } } } } } :.O.:.:.O.O.) ) / ) = = = = %       ",
"        * 5 C <.) } } } } } :.<.<.:.O.O./ E 6.3 3 = = = %       ",
"      * 5 N C C q.) } } } 2.2.<.2.<.O.O.6.5.3 3 3 2 = = *       ",
"      * N N C C C q.q.e.2.2.2.2.2.O.9.6.r w 3 3 2 2 2 = *       ",
"    * N N N N C C C C S e.2.2.q.q.9.y r w 3 3 2 2 2 2 1 %       ",
"    * N N N N N C C C C q.q.q.a y y y e w 3 2 2 2 2 1 < %       ",
"    & N N N N N C C C 9.z z z z y y r e 3 3 2 2 2 1 < < @       ",
"    $ 6 6 N N N N C C 9.z z z z z r r w 3 2 2 2 1 < < < +       ",
"    # 6 6 6 6 N N N O.s z z z z z z 6 6 2 2 2 2 < < < +         ",
"      # 6 6 6 6 6 6 z z z z z z s 7 6 6 6 1 1 < < < o           ",
"      # 6 6 6 6 6 6 6 s z z z z 7 6 6 6 4 4 < < < o             ",
"        # 6 6 6 6 6 6 6 s z z z 6 6 6 6 3 3 < < .               ",
"        @ 6 6 6 6 6 6 0 0 0 0 0 6 6 6 6 3 3 o .                 ",
"          @ 6 6 6 6 8 0 8 8 8 8 6 6 6 3 O o                     ",
"            @ @ @ O O 6 6 6 6 6 6 4 o O                         ",
"                      O X O X O . o                             ",
"                                                                ",
"                                                                ",
"                                                                "
};
